STARTFONT 2.1
FONT -FontForge-Thin Pixel7-Book-R-Normal--20-190-75-75-P-55-ISO10646-1
SIZE 19 75 75
FONTBOUNDINGBOX 11 11 0 -1
COMMENT "Generated by fontforge, http://fontforge.sourceforge.net"
COMMENT "Copyright (c) 2013 by Style-7. All rights reserved. http://www.styleseven.com"
STARTPROPERTIES 40
FOUNDRY "FontForge"
FAMILY_NAME "Thin Pixel7"
WEIGHT_NAME "Book"
SLANT "R"
SETWIDTH_NAME "Normal"
ADD_STYLE_NAME ""
PIXEL_SIZE 20
POINT_SIZE 190
RESOLUTION_X 75
RESOLUTION_Y 75
SPACING "P"
AVERAGE_WIDTH 55
CHARSET_REGISTRY "ISO10646"
CHARSET_ENCODING "1"
FONTNAME_REGISTRY ""
CHARSET_COLLECTIONS "ISO8859-5 ISO10646-1"
FONT_NAME "ThinPixel-7"
FACE_NAME "Thin Pixel-7"
COPYRIGHT "Copyright (c) 2013 by Style-7. All rights reserved. http://www.styleseven.com"
FONT_VERSION "1.000"
FONT_ASCENT 15
FONT_DESCENT 5
UNDERLINE_POSITION -2
UNDERLINE_THICKNESS 1
X_HEIGHT 4
CAP_HEIGHT 6
RAW_ASCENT 750
RAW_DESCENT 250
NORM_SPACE 6
RELATIVE_WEIGHT 40
RELATIVE_SETWIDTH 50
SUPERSCRIPT_X 0
SUPERSCRIPT_Y 4
SUPERSCRIPT_SIZE 13
SUBSCRIPT_X 0
SUBSCRIPT_Y -2
SUBSCRIPT_SIZE 13
FIGURE_WIDTH 6
AVG_LOWERCASE_WIDTH 52
AVG_UPPERCASE_WIDTH 61
ENDPROPERTIES
CHARS 315
STARTCHAR space
ENCODING 32
SWIDTH 300 0
DWIDTH 6 0
BBX 1 1 0 0
BITMAP
00
ENDCHAR
STARTCHAR exclam
ENCODING 33
SWIDTH 100 0
DWIDTH 2 0
BBX 1 7 0 0
BITMAP
80
80
80
80
80
00
80
ENDCHAR
STARTCHAR quotedbl
ENCODING 34
SWIDTH 200 0
DWIDTH 4 0
BBX 3 3 0 4
BITMAP
A0
A0
A0
ENDCHAR
STARTCHAR numbersign
ENCODING 35
SWIDTH 300 0
DWIDTH 6 0
BBX 5 7 0 0
BITMAP
50
F8
50
50
50
F8
50
ENDCHAR
STARTCHAR dollar
ENCODING 36
SWIDTH 300 0
DWIDTH 6 0
BBX 5 8 0 0
BITMAP
20
78
A0
A0
70
28
28
F0
ENDCHAR
STARTCHAR percent
ENCODING 37
SWIDTH 350 0
DWIDTH 7 0
BBX 6 6 0 0
BITMAP
C4
C8
10
20
4C
8C
ENDCHAR
STARTCHAR ampersand
ENCODING 38
SWIDTH 350 0
DWIDTH 7 0
BBX 6 7 0 0
BITMAP
60
90
90
6C
90
90
6C
ENDCHAR
STARTCHAR quotesingle
ENCODING 39
SWIDTH 100 0
DWIDTH 2 0
BBX 1 3 0 4
BITMAP
80
80
80
ENDCHAR
STARTCHAR parenleft
ENCODING 40
SWIDTH 200 0
DWIDTH 4 0
BBX 3 7 0 0
BITMAP
60
80
80
80
80
80
60
ENDCHAR
STARTCHAR parenright
ENCODING 41
SWIDTH 200 0
DWIDTH 4 0
BBX 3 7 0 0
BITMAP
C0
20
20
20
20
20
C0
ENDCHAR
STARTCHAR asterisk
ENCODING 42
SWIDTH 300 0
DWIDTH 6 0
BBX 5 5 0 1
BITMAP
50
20
F8
20
50
ENDCHAR
STARTCHAR plus
ENCODING 43
SWIDTH 300 0
DWIDTH 6 0
BBX 5 5 0 1
BITMAP
20
20
F8
20
20
ENDCHAR
STARTCHAR comma
ENCODING 44
SWIDTH 150 0
DWIDTH 3 0
BBX 2 3 0 -1
BITMAP
C0
40
80
ENDCHAR
STARTCHAR hyphen
ENCODING 45
SWIDTH 300 0
DWIDTH 6 0
BBX 5 1 0 3
BITMAP
F8
ENDCHAR
STARTCHAR period
ENCODING 46
SWIDTH 100 0
DWIDTH 2 0
BBX 1 1 0 0
BITMAP
80
ENDCHAR
STARTCHAR slash
ENCODING 47
SWIDTH 350 0
DWIDTH 7 0
BBX 6 6 0 0
BITMAP
04
08
10
20
40
80
ENDCHAR
STARTCHAR zero
ENCODING 48
SWIDTH 300 0
DWIDTH 6 0
BBX 5 7 0 0
BITMAP
70
88
98
A8
C8
88
70
ENDCHAR
STARTCHAR one
ENCODING 49
SWIDTH 300 0
DWIDTH 6 0
BBX 5 7 0 0
BITMAP
20
60
A0
20
20
20
F8
ENDCHAR
STARTCHAR two
ENCODING 50
SWIDTH 300 0
DWIDTH 6 0
BBX 5 7 0 0
BITMAP
70
88
08
70
80
80
F8
ENDCHAR
STARTCHAR three
ENCODING 51
SWIDTH 300 0
DWIDTH 6 0
BBX 5 7 0 0
BITMAP
70
88
08
30
08
88
70
ENDCHAR
STARTCHAR four
ENCODING 52
SWIDTH 300 0
DWIDTH 6 0
BBX 5 7 0 0
BITMAP
18
28
48
88
F8
08
08
ENDCHAR
STARTCHAR five
ENCODING 53
SWIDTH 300 0
DWIDTH 6 0
BBX 5 7 0 0
BITMAP
F8
80
F0
88
08
88
70
ENDCHAR
STARTCHAR six
ENCODING 54
SWIDTH 300 0
DWIDTH 6 0
BBX 5 7 0 0
BITMAP
70
88
80
F0
88
88
70
ENDCHAR
STARTCHAR seven
ENCODING 55
SWIDTH 300 0
DWIDTH 6 0
BBX 5 7 0 0
BITMAP
F8
08
08
10
20
20
20
ENDCHAR
STARTCHAR eight
ENCODING 56
SWIDTH 300 0
DWIDTH 6 0
BBX 5 7 0 0
BITMAP
70
88
88
70
88
88
70
ENDCHAR
STARTCHAR nine
ENCODING 57
SWIDTH 300 0
DWIDTH 6 0
BBX 5 7 0 0
BITMAP
70
88
88
78
08
88
70
ENDCHAR
STARTCHAR colon
ENCODING 58
SWIDTH 100 0
DWIDTH 2 0
BBX 1 3 0 2
BITMAP
80
00
80
ENDCHAR
STARTCHAR semicolon
ENCODING 59
SWIDTH 151 0
DWIDTH 3 0
BBX 2 6 0 -1
BITMAP
80
00
00
C0
40
80
ENDCHAR
STARTCHAR less
ENCODING 60
SWIDTH 200 0
DWIDTH 4 0
BBX 3 5 0 1
BITMAP
20
40
80
40
20
ENDCHAR
STARTCHAR equal
ENCODING 61
SWIDTH 300 0
DWIDTH 6 0
BBX 5 3 0 2
BITMAP
F8
00
F8
ENDCHAR
STARTCHAR greater
ENCODING 62
SWIDTH 200 0
DWIDTH 4 0
BBX 3 5 0 1
BITMAP
80
40
20
40
80
ENDCHAR
STARTCHAR question
ENCODING 63
SWIDTH 300 0
DWIDTH 6 0
BBX 5 7 0 0
BITMAP
70
88
08
30
20
00
20
ENDCHAR
STARTCHAR at
ENCODING 64
SWIDTH 300 0
DWIDTH 6 0
BBX 5 7 0 0
BITMAP
70
88
B8
A8
B8
80
78
ENDCHAR
STARTCHAR A
ENCODING 65
SWIDTH 300 0
DWIDTH 6 0
BBX 5 7 0 0
BITMAP
70
88
88
F8
88
88
88
ENDCHAR
STARTCHAR B
ENCODING 66
SWIDTH 300 0
DWIDTH 6 0
BBX 5 7 0 0
BITMAP
F0
88
88
F0
88
88
F0
ENDCHAR
STARTCHAR C
ENCODING 67
SWIDTH 300 0
DWIDTH 6 0
BBX 5 7 0 0
BITMAP
70
88
80
80
80
88
70
ENDCHAR
STARTCHAR D
ENCODING 68
SWIDTH 300 0
DWIDTH 6 0
BBX 5 7 0 0
BITMAP
F0
88
88
88
88
88
F0
ENDCHAR
STARTCHAR E
ENCODING 69
SWIDTH 300 0
DWIDTH 6 0
BBX 5 7 0 0
BITMAP
F8
80
80
F0
80
80
F8
ENDCHAR
STARTCHAR F
ENCODING 70
SWIDTH 300 0
DWIDTH 6 0
BBX 5 7 0 0
BITMAP
F8
80
80
F0
80
80
80
ENDCHAR
STARTCHAR G
ENCODING 71
SWIDTH 300 0
DWIDTH 6 0
BBX 5 7 0 0
BITMAP
70
88
80
80
98
88
70
ENDCHAR
STARTCHAR H
ENCODING 72
SWIDTH 300 0
DWIDTH 6 0
BBX 5 7 0 0
BITMAP
88
88
88
F8
88
88
88
ENDCHAR
STARTCHAR I
ENCODING 73
SWIDTH 300 0
DWIDTH 6 0
BBX 5 7 0 0
BITMAP
F8
20
20
20
20
20
F8
ENDCHAR
STARTCHAR J
ENCODING 74
SWIDTH 300 0
DWIDTH 6 0
BBX 5 7 0 0
BITMAP
F8
88
08
08
88
88
70
ENDCHAR
STARTCHAR K
ENCODING 75
SWIDTH 300 0
DWIDTH 6 0
BBX 5 7 0 0
BITMAP
88
88
90
E0
90
88
88
ENDCHAR
STARTCHAR L
ENCODING 76
SWIDTH 300 0
DWIDTH 6 0
BBX 5 7 0 0
BITMAP
80
80
80
80
80
80
F8
ENDCHAR
STARTCHAR M
ENCODING 77
SWIDTH 300 0
DWIDTH 6 0
BBX 5 7 0 0
BITMAP
88
88
D8
A8
A8
88
88
ENDCHAR
STARTCHAR N
ENCODING 78
SWIDTH 300 0
DWIDTH 6 0
BBX 5 7 0 0
BITMAP
88
88
C8
A8
98
88
88
ENDCHAR
STARTCHAR O
ENCODING 79
SWIDTH 300 0
DWIDTH 6 0
BBX 5 7 0 0
BITMAP
70
88
88
88
88
88
70
ENDCHAR
STARTCHAR P
ENCODING 80
SWIDTH 300 0
DWIDTH 6 0
BBX 5 7 0 0
BITMAP
F0
88
88
F0
80
80
80
ENDCHAR
STARTCHAR Q
ENCODING 81
SWIDTH 300 0
DWIDTH 6 0
BBX 5 7 0 0
BITMAP
70
88
88
88
88
88
78
ENDCHAR
STARTCHAR R
ENCODING 82
SWIDTH 300 0
DWIDTH 6 0
BBX 5 7 0 0
BITMAP
F0
88
88
F0
A0
90
88
ENDCHAR
STARTCHAR S
ENCODING 83
SWIDTH 300 0
DWIDTH 6 0
BBX 5 7 0 0
BITMAP
78
80
80
70
08
08
F0
ENDCHAR
STARTCHAR T
ENCODING 84
SWIDTH 300 0
DWIDTH 6 0
BBX 5 7 0 0
BITMAP
F8
20
20
20
20
20
20
ENDCHAR
STARTCHAR U
ENCODING 85
SWIDTH 300 0
DWIDTH 6 0
BBX 5 7 0 0
BITMAP
88
88
88
88
88
88
70
ENDCHAR
STARTCHAR V
ENCODING 86
SWIDTH 300 0
DWIDTH 6 0
BBX 5 7 0 0
BITMAP
88
88
88
88
88
50
20
ENDCHAR
STARTCHAR W
ENCODING 87
SWIDTH 300 0
DWIDTH 6 0
BBX 5 7 0 0
BITMAP
88
88
A8
A8
A8
A8
50
ENDCHAR
STARTCHAR X
ENCODING 88
SWIDTH 300 0
DWIDTH 6 0
BBX 5 7 0 0
BITMAP
88
88
50
20
50
88
88
ENDCHAR
STARTCHAR Y
ENCODING 89
SWIDTH 300 0
DWIDTH 6 0
BBX 5 7 0 0
BITMAP
88
88
50
20
20
20
20
ENDCHAR
STARTCHAR Z
ENCODING 90
SWIDTH 300 0
DWIDTH 6 0
BBX 5 7 0 0
BITMAP
F8
08
10
20
40
80
F8
ENDCHAR
STARTCHAR bracketleft
ENCODING 91
SWIDTH 200 0
DWIDTH 4 0
BBX 3 7 0 0
BITMAP
E0
80
80
80
80
80
E0
ENDCHAR
STARTCHAR backslash
ENCODING 92
SWIDTH 350 0
DWIDTH 7 0
BBX 6 6 0 0
BITMAP
80
40
20
10
08
04
ENDCHAR
STARTCHAR bracketright
ENCODING 93
SWIDTH 200 0
DWIDTH 4 0
BBX 3 7 0 0
BITMAP
E0
20
20
20
20
20
E0
ENDCHAR
STARTCHAR asciicircum
ENCODING 94
SWIDTH 300 0
DWIDTH 6 0
BBX 5 3 0 4
BITMAP
20
50
88
ENDCHAR
STARTCHAR underscore
ENCODING 95
SWIDTH 300 0
DWIDTH 6 0
BBX 5 1 0 0
BITMAP
F8
ENDCHAR
STARTCHAR grave
ENCODING 96
SWIDTH 150 0
DWIDTH 3 0
BBX 2 2 0 5
BITMAP
80
40
ENDCHAR
STARTCHAR a
ENCODING 97
SWIDTH 250 0
DWIDTH 5 0
BBX 4 5 0 0
BITMAP
60
10
70
90
70
ENDCHAR
STARTCHAR b
ENCODING 98
SWIDTH 250 0
DWIDTH 5 0
BBX 4 7 0 0
BITMAP
80
80
E0
90
90
90
E0
ENDCHAR
STARTCHAR c
ENCODING 99
SWIDTH 250 0
DWIDTH 5 0
BBX 4 5 0 0
BITMAP
70
80
80
80
70
ENDCHAR
STARTCHAR d
ENCODING 100
SWIDTH 250 0
DWIDTH 5 0
BBX 4 7 0 0
BITMAP
10
10
70
90
90
90
70
ENDCHAR
STARTCHAR e
ENCODING 101
SWIDTH 250 0
DWIDTH 5 0
BBX 4 5 0 0
BITMAP
60
90
F0
80
70
ENDCHAR
STARTCHAR f
ENCODING 102
SWIDTH 250 0
DWIDTH 5 0
BBX 4 7 0 0
BITMAP
30
40
E0
40
40
40
40
ENDCHAR
STARTCHAR g
ENCODING 103
SWIDTH 250 0
DWIDTH 5 0
BBX 4 6 0 -1
BITMAP
70
90
90
90
70
60
ENDCHAR
STARTCHAR h
ENCODING 104
SWIDTH 250 0
DWIDTH 5 0
BBX 4 7 0 0
BITMAP
80
80
E0
90
90
90
90
ENDCHAR
STARTCHAR i
ENCODING 105
SWIDTH 200 0
DWIDTH 4 0
BBX 3 7 0 0
BITMAP
40
00
C0
40
40
40
E0
ENDCHAR
STARTCHAR j
ENCODING 106
SWIDTH 200 0
DWIDTH 4 0
BBX 3 8 0 -1
BITMAP
40
00
E0
20
20
20
20
C0
ENDCHAR
STARTCHAR k
ENCODING 107
SWIDTH 250 0
DWIDTH 5 0
BBX 4 7 0 0
BITMAP
80
80
90
A0
C0
A0
90
ENDCHAR
STARTCHAR l
ENCODING 108
SWIDTH 200 0
DWIDTH 4 0
BBX 3 7 0 0
BITMAP
C0
40
40
40
40
40
E0
ENDCHAR
STARTCHAR m
ENCODING 109
SWIDTH 301 0
DWIDTH 6 0
BBX 5 5 0 0
BITMAP
F0
A8
A8
A8
A8
ENDCHAR
STARTCHAR n
ENCODING 110
SWIDTH 250 0
DWIDTH 5 0
BBX 4 5 0 0
BITMAP
E0
90
90
90
90
ENDCHAR
STARTCHAR o
ENCODING 111
SWIDTH 250 0
DWIDTH 5 0
BBX 4 5 0 0
BITMAP
60
90
90
90
60
ENDCHAR
STARTCHAR p
ENCODING 112
SWIDTH 250 0
DWIDTH 5 0
BBX 4 6 0 -1
BITMAP
E0
90
90
90
E0
80
ENDCHAR
STARTCHAR q
ENCODING 113
SWIDTH 250 0
DWIDTH 5 0
BBX 4 6 0 -1
BITMAP
70
90
90
90
70
10
ENDCHAR
STARTCHAR r
ENCODING 114
SWIDTH 250 0
DWIDTH 5 0
BBX 4 5 0 0
BITMAP
E0
90
80
80
80
ENDCHAR
STARTCHAR s
ENCODING 115
SWIDTH 250 0
DWIDTH 5 0
BBX 4 5 0 0
BITMAP
70
80
60
10
E0
ENDCHAR
STARTCHAR t
ENCODING 116
SWIDTH 250 0
DWIDTH 5 0
BBX 4 7 0 0
BITMAP
40
40
E0
40
40
40
30
ENDCHAR
STARTCHAR u
ENCODING 117
SWIDTH 250 0
DWIDTH 5 0
BBX 4 5 0 0
BITMAP
90
90
90
90
60
ENDCHAR
STARTCHAR v
ENCODING 118
SWIDTH 300 0
DWIDTH 6 0
BBX 4 5 0 0
BITMAP
90
90
90
50
20
ENDCHAR
STARTCHAR w
ENCODING 119
SWIDTH 300 0
DWIDTH 6 0
BBX 5 5 0 0
BITMAP
88
A8
A8
A8
50
ENDCHAR
STARTCHAR x
ENCODING 120
SWIDTH 251 0
DWIDTH 5 0
BBX 4 5 0 0
BITMAP
90
90
60
90
90
ENDCHAR
STARTCHAR y
ENCODING 121
SWIDTH 250 0
DWIDTH 5 0
BBX 4 6 0 -1
BITMAP
90
90
90
90
70
60
ENDCHAR
STARTCHAR z
ENCODING 122
SWIDTH 251 0
DWIDTH 5 0
BBX 4 5 0 0
BITMAP
F0
10
60
80
F0
ENDCHAR
STARTCHAR braceleft
ENCODING 123
SWIDTH 250 0
DWIDTH 5 0
BBX 4 7 0 0
BITMAP
70
40
40
C0
40
40
70
ENDCHAR
STARTCHAR bar
ENCODING 124
SWIDTH 100 0
DWIDTH 2 0
BBX 1 7 0 0
BITMAP
80
80
80
80
80
80
80
ENDCHAR
STARTCHAR braceright
ENCODING 125
SWIDTH 250 0
DWIDTH 5 0
BBX 4 7 0 0
BITMAP
E0
20
20
30
20
20
E0
ENDCHAR
STARTCHAR asciitilde
ENCODING 126
SWIDTH 300 0
DWIDTH 6 0
BBX 5 3 0 2
BITMAP
48
A8
90
ENDCHAR
STARTCHAR space.dup1
ENCODING 160
SWIDTH 300 0
DWIDTH 6 0
BBX 1 1 0 0
BITMAP
00
ENDCHAR
STARTCHAR exclamdown
ENCODING 161
SWIDTH 100 0
DWIDTH 2 0
BBX 1 7 0 0
BITMAP
80
00
80
80
80
80
80
ENDCHAR
STARTCHAR cent
ENCODING 162
SWIDTH 300 0
DWIDTH 6 0
BBX 5 6 0 0
BITMAP
20
78
A0
A0
A0
78
ENDCHAR
STARTCHAR sterling
ENCODING 163
SWIDTH 250 0
DWIDTH 5 0
BBX 4 7 0 0
BITMAP
30
40
E0
40
40
40
F0
ENDCHAR
STARTCHAR currency
ENCODING 164
SWIDTH 350 0
DWIDTH 7 0
BBX 6 6 0 1
BITMAP
84
30
48
48
30
84
ENDCHAR
STARTCHAR yen
ENCODING 165
SWIDTH 300 0
DWIDTH 6 0
BBX 5 7 0 0
BITMAP
88
50
20
70
20
70
20
ENDCHAR
STARTCHAR brokenbar
ENCODING 166
SWIDTH 100 0
DWIDTH 2 0
BBX 1 7 0 0
BITMAP
80
80
80
00
80
80
80
ENDCHAR
STARTCHAR section
ENCODING 167
SWIDTH 300 0
DWIDTH 6 0
BBX 5 7 0 0
BITMAP
78
80
F0
88
78
08
F0
ENDCHAR
STARTCHAR dieresis
ENCODING 168
SWIDTH 200 0
DWIDTH 4 0
BBX 3 1 0 6
BITMAP
A0
ENDCHAR
STARTCHAR copyright
ENCODING 169
SWIDTH 400 0
DWIDTH 8 0
BBX 7 7 0 0
BITMAP
7C
82
BA
A2
BA
82
7C
ENDCHAR
STARTCHAR ordfeminine
ENCODING 170
SWIDTH 250 0
DWIDTH 5 0
BBX 4 5 0 2
BITMAP
60
10
70
90
70
ENDCHAR
STARTCHAR guillemotleft
ENCODING 171
SWIDTH 350 0
DWIDTH 7 0
BBX 6 5 0 1
BITMAP
24
48
90
48
24
ENDCHAR
STARTCHAR logicalnot
ENCODING 172
SWIDTH 300 0
DWIDTH 6 0
BBX 5 3 0 4
BITMAP
F8
08
08
ENDCHAR
STARTCHAR uni00AD
ENCODING 173
SWIDTH 250 0
DWIDTH 5 0
BBX 4 1 0 3
BITMAP
F0
ENDCHAR
STARTCHAR registered
ENCODING 174
SWIDTH 400 0
DWIDTH 8 0
BBX 7 8 0 0
BITMAP
7C
82
B2
AA
B2
AA
82
7C
ENDCHAR
STARTCHAR degree
ENCODING 176
SWIDTH 250 0
DWIDTH 5 0
BBX 4 4 0 3
BITMAP
60
90
90
60
ENDCHAR
STARTCHAR plusminus
ENCODING 177
SWIDTH 300 0
DWIDTH 6 0
BBX 5 7 0 0
BITMAP
20
20
F8
20
20
00
F8
ENDCHAR
STARTCHAR twosuperior
ENCODING 178
SWIDTH 300 0
DWIDTH 6 0
BBX 4 5 0 2
BITMAP
E0
10
60
80
F0
ENDCHAR
STARTCHAR threesuperior
ENCODING 179
SWIDTH 250 0
DWIDTH 5 0
BBX 4 5 0 2
BITMAP
E0
10
60
10
E0
ENDCHAR
STARTCHAR acute
ENCODING 180
SWIDTH 150 0
DWIDTH 3 0
BBX 2 2 0 5
BITMAP
40
80
ENDCHAR
STARTCHAR mu
ENCODING 181
SWIDTH 300 0
DWIDTH 6 0
BBX 5 7 0 -1
BITMAP
88
88
88
88
D8
A8
80
ENDCHAR
STARTCHAR paragraph
ENCODING 182
SWIDTH 300 0
DWIDTH 6 0
BBX 5 7 0 0
BITMAP
78
D0
D0
50
50
50
50
ENDCHAR
STARTCHAR periodcentered
ENCODING 183
SWIDTH 100 0
DWIDTH 2 0
BBX 1 1 0 3
BITMAP
80
ENDCHAR
STARTCHAR cedilla
ENCODING 184
SWIDTH 200 0
DWIDTH 4 0
BBX 3 2 0 -1
BITMAP
20
C0
ENDCHAR
STARTCHAR onesuperior
ENCODING 185
SWIDTH 200 0
DWIDTH 4 0
BBX 3 5 0 2
BITMAP
40
C0
40
40
E0
ENDCHAR
STARTCHAR ordmasculine
ENCODING 186
SWIDTH 250 0
DWIDTH 5 0
BBX 4 5 0 2
BITMAP
60
90
90
90
60
ENDCHAR
STARTCHAR guillemotright
ENCODING 187
SWIDTH 350 0
DWIDTH 7 0
BBX 6 5 0 1
BITMAP
90
48
24
48
90
ENDCHAR
STARTCHAR onequarter
ENCODING 188
SWIDTH 600 0
DWIDTH 12 0
BBX 11 10 0 -1
BITMAP
4000
C000
4000
4100
E200
0400
0920
1120
21E0
0020
ENDCHAR
STARTCHAR onehalf
ENCODING 189
SWIDTH 600 0
DWIDTH 12 0
BBX 11 10 0 -1
BITMAP
4000
C000
4000
4100
E200
0400
09C0
1020
21E0
01E0
ENDCHAR
STARTCHAR threequarters
ENCODING 190
SWIDTH 600 0
DWIDTH 12 0
BBX 11 10 0 -1
BITMAP
E000
1000
6000
1100
E200
0400
0920
1120
21E0
0020
ENDCHAR
STARTCHAR questiondown
ENCODING 191
SWIDTH 300 0
DWIDTH 6 0
BBX 5 7 0 0
BITMAP
20
00
20
60
80
88
70
ENDCHAR
STARTCHAR Agrave
ENCODING 192
SWIDTH 300 0
DWIDTH 6 0
BBX 5 10 0 0
BITMAP
40
20
00
70
88
88
F8
88
88
88
ENDCHAR
STARTCHAR Aacute
ENCODING 193
SWIDTH 300 0
DWIDTH 6 0
BBX 5 10 0 0
BITMAP
10
20
00
70
88
88
F8
88
88
88
ENDCHAR
STARTCHAR Acircumflex
ENCODING 194
SWIDTH 300 0
DWIDTH 6 0
BBX 5 10 0 0
BITMAP
50
88
00
70
88
88
F8
88
88
88
ENDCHAR
STARTCHAR Atilde
ENCODING 195
SWIDTH 300 0
DWIDTH 6 0
BBX 5 10 0 0
BITMAP
28
50
00
70
88
88
F8
88
88
88
ENDCHAR
STARTCHAR Adieresis
ENCODING 196
SWIDTH 300 0
DWIDTH 6 0
BBX 5 9 0 0
BITMAP
50
00
70
88
88
F8
88
88
88
ENDCHAR
STARTCHAR Aring
ENCODING 197
SWIDTH 300 0
DWIDTH 6 0
BBX 5 10 0 0
BITMAP
20
50
20
70
88
88
F8
88
88
88
ENDCHAR
STARTCHAR AE
ENCODING 198
SWIDTH 400 0
DWIDTH 8 0
BBX 7 7 0 0
BITMAP
7E
90
90
FC
90
90
9E
ENDCHAR
STARTCHAR Ccedilla
ENCODING 199
SWIDTH 300 0
DWIDTH 6 0
BBX 5 8 0 -1
BITMAP
70
88
80
80
80
88
70
C0
ENDCHAR
STARTCHAR Egrave
ENCODING 200
SWIDTH 300 0
DWIDTH 6 0
BBX 5 10 0 0
BITMAP
40
20
00
F8
80
80
F0
80
80
F8
ENDCHAR
STARTCHAR Eacute
ENCODING 201
SWIDTH 300 0
DWIDTH 6 0
BBX 5 10 0 0
BITMAP
10
20
00
F8
80
80
F0
80
80
F8
ENDCHAR
STARTCHAR Ecircumflex
ENCODING 202
SWIDTH 300 0
DWIDTH 6 0
BBX 5 10 0 0
BITMAP
50
88
00
F8
80
80
F0
80
80
F8
ENDCHAR
STARTCHAR Edieresis
ENCODING 203
SWIDTH 300 0
DWIDTH 6 0
BBX 5 9 0 0
BITMAP
50
00
F8
80
80
F0
80
80
F8
ENDCHAR
STARTCHAR Igrave
ENCODING 204
SWIDTH 300 0
DWIDTH 6 0
BBX 5 10 0 0
BITMAP
40
20
00
F8
20
20
20
20
20
F8
ENDCHAR
STARTCHAR Iacute
ENCODING 205
SWIDTH 300 0
DWIDTH 6 0
BBX 5 10 0 0
BITMAP
10
20
00
F8
20
20
20
20
20
F8
ENDCHAR
STARTCHAR Icircumflex
ENCODING 206
SWIDTH 300 0
DWIDTH 6 0
BBX 5 10 0 0
BITMAP
50
88
00
F8
20
20
20
20
20
F8
ENDCHAR
STARTCHAR Idieresis
ENCODING 207
SWIDTH 300 0
DWIDTH 6 0
BBX 5 9 0 0
BITMAP
50
00
F8
20
20
20
20
20
F8
ENDCHAR
STARTCHAR Eth
ENCODING 208
SWIDTH 350 0
DWIDTH 7 0
BBX 6 7 0 0
BITMAP
78
44
44
F4
44
44
78
ENDCHAR
STARTCHAR Ntilde
ENCODING 209
SWIDTH 300 0
DWIDTH 6 0
BBX 5 10 0 0
BITMAP
28
50
00
88
88
C8
A8
98
88
88
ENDCHAR
STARTCHAR Ograve
ENCODING 210
SWIDTH 300 0
DWIDTH 6 0
BBX 5 10 0 0
BITMAP
40
20
00
70
88
88
88
88
88
70
ENDCHAR
STARTCHAR Oacute
ENCODING 211
SWIDTH 300 0
DWIDTH 6 0
BBX 5 10 0 0
BITMAP
10
20
00
70
88
88
88
88
88
70
ENDCHAR
STARTCHAR Ocircumflex
ENCODING 212
SWIDTH 300 0
DWIDTH 6 0
BBX 5 10 0 0
BITMAP
50
88
00
70
88
88
88
88
88
70
ENDCHAR
STARTCHAR Otilde
ENCODING 213
SWIDTH 300 0
DWIDTH 6 0
BBX 5 10 0 0
BITMAP
28
50
00
70
88
88
88
88
88
70
ENDCHAR
STARTCHAR Odieresis
ENCODING 214
SWIDTH 300 0
DWIDTH 6 0
BBX 5 9 0 0
BITMAP
50
00
70
88
88
88
88
88
70
ENDCHAR
STARTCHAR multiply
ENCODING 215
SWIDTH 300 0
DWIDTH 6 0
BBX 5 5 0 1
BITMAP
88
50
20
50
88
ENDCHAR
STARTCHAR Oslash
ENCODING 216
SWIDTH 300 0
DWIDTH 6 0
BBX 5 7 0 0
BITMAP
70
88
98
A8
C8
88
70
ENDCHAR
STARTCHAR Ugrave
ENCODING 217
SWIDTH 300 0
DWIDTH 6 0
BBX 5 10 0 0
BITMAP
40
20
00
88
88
88
88
88
88
70
ENDCHAR
STARTCHAR Uacute
ENCODING 218
SWIDTH 300 0
DWIDTH 6 0
BBX 5 10 0 0
BITMAP
10
20
00
88
88
88
88
88
88
70
ENDCHAR
STARTCHAR Ucircumflex
ENCODING 219
SWIDTH 300 0
DWIDTH 6 0
BBX 5 10 0 0
BITMAP
50
88
00
88
88
88
88
88
88
70
ENDCHAR
STARTCHAR Udieresis
ENCODING 220
SWIDTH 300 0
DWIDTH 6 0
BBX 5 9 0 0
BITMAP
50
00
88
88
88
88
88
88
70
ENDCHAR
STARTCHAR Yacute
ENCODING 221
SWIDTH 300 0
DWIDTH 6 0
BBX 5 10 0 0
BITMAP
10
20
00
88
88
50
20
20
20
20
ENDCHAR
STARTCHAR Thorn
ENCODING 222
SWIDTH 300 0
DWIDTH 6 0
BBX 5 7 0 0
BITMAP
80
F0
88
88
88
F0
80
ENDCHAR
STARTCHAR germandbls
ENCODING 223
SWIDTH 300 0
DWIDTH 6 0
BBX 5 7 0 0
BITMAP
60
90
90
F0
88
88
B0
ENDCHAR
STARTCHAR agrave
ENCODING 224
SWIDTH 250 0
DWIDTH 5 0
BBX 4 8 0 0
BITMAP
80
40
00
60
10
70
90
70
ENDCHAR
STARTCHAR aacute
ENCODING 225
SWIDTH 250 0
DWIDTH 5 0
BBX 4 8 0 0
BITMAP
10
20
00
60
10
70
90
70
ENDCHAR
STARTCHAR acircumflex
ENCODING 226
SWIDTH 250 0
DWIDTH 5 0
BBX 4 8 0 0
BITMAP
20
50
00
60
10
70
90
70
ENDCHAR
STARTCHAR atilde
ENCODING 227
SWIDTH 250 0
DWIDTH 5 0
BBX 4 8 0 0
BITMAP
50
A0
00
60
10
70
90
70
ENDCHAR
STARTCHAR adieresis
ENCODING 228
SWIDTH 250 0
DWIDTH 5 0
BBX 4 7 0 0
BITMAP
50
00
60
10
70
90
70
ENDCHAR
STARTCHAR aring
ENCODING 229
SWIDTH 250 0
DWIDTH 5 0
BBX 4 9 0 0
BITMAP
20
50
20
00
60
10
70
90
70
ENDCHAR
STARTCHAR ae
ENCODING 230
SWIDTH 400 0
DWIDTH 8 0
BBX 7 5 0 0
BITMAP
6C
12
7E
90
6E
ENDCHAR
STARTCHAR ccedilla
ENCODING 231
SWIDTH 250 0
DWIDTH 5 0
BBX 4 6 0 -1
BITMAP
70
80
80
80
70
C0
ENDCHAR
STARTCHAR egrave
ENCODING 232
SWIDTH 250 0
DWIDTH 5 0
BBX 4 8 0 0
BITMAP
80
40
00
60
90
F0
80
70
ENDCHAR
STARTCHAR eacute
ENCODING 233
SWIDTH 250 0
DWIDTH 5 0
BBX 4 8 0 0
BITMAP
10
20
00
60
90
F0
80
70
ENDCHAR
STARTCHAR ecircumflex
ENCODING 234
SWIDTH 250 0
DWIDTH 5 0
BBX 4 8 0 0
BITMAP
20
50
00
60
90
F0
80
70
ENDCHAR
STARTCHAR edieresis
ENCODING 235
SWIDTH 250 0
DWIDTH 5 0
BBX 4 7 0 0
BITMAP
50
00
60
90
F0
80
70
ENDCHAR
STARTCHAR igrave
ENCODING 236
SWIDTH 200 0
DWIDTH 4 0
BBX 3 8 0 0
BITMAP
80
40
00
C0
40
40
40
E0
ENDCHAR
STARTCHAR iacute
ENCODING 237
SWIDTH 200 0
DWIDTH 4 0
BBX 3 8 0 0
BITMAP
20
40
00
C0
40
40
40
E0
ENDCHAR
STARTCHAR icircumflex
ENCODING 238
SWIDTH 200 0
DWIDTH 4 0
BBX 3 8 0 0
BITMAP
40
A0
00
C0
40
40
40
E0
ENDCHAR
STARTCHAR idieresis
ENCODING 239
SWIDTH 200 0
DWIDTH 4 0
BBX 3 7 0 0
BITMAP
A0
00
C0
40
40
40
E0
ENDCHAR
STARTCHAR eth
ENCODING 240
SWIDTH 250 0
DWIDTH 5 0
BBX 4 7 0 0
BITMAP
20
10
70
90
90
90
60
ENDCHAR
STARTCHAR ntilde
ENCODING 241
SWIDTH 250 0
DWIDTH 5 0
BBX 4 8 0 0
BITMAP
50
A0
00
E0
90
90
90
90
ENDCHAR
STARTCHAR ograve
ENCODING 242
SWIDTH 250 0
DWIDTH 5 0
BBX 4 8 0 0
BITMAP
80
40
00
60
90
90
90
60
ENDCHAR
STARTCHAR oacute
ENCODING 243
SWIDTH 250 0
DWIDTH 5 0
BBX 4 8 0 0
BITMAP
10
20
00
60
90
90
90
60
ENDCHAR
STARTCHAR ocircumflex
ENCODING 244
SWIDTH 250 0
DWIDTH 5 0
BBX 4 8 0 0
BITMAP
60
90
00
60
90
90
90
60
ENDCHAR
STARTCHAR otilde
ENCODING 245
SWIDTH 250 0
DWIDTH 5 0
BBX 4 8 0 0
BITMAP
50
A0
00
60
90
90
90
60
ENDCHAR
STARTCHAR odieresis
ENCODING 246
SWIDTH 250 0
DWIDTH 5 0
BBX 4 7 0 0
BITMAP
90
00
60
90
90
90
60
ENDCHAR
STARTCHAR divide
ENCODING 247
SWIDTH 300 0
DWIDTH 6 0
BBX 5 5 0 1
BITMAP
20
00
F8
00
20
ENDCHAR
STARTCHAR oslash
ENCODING 248
SWIDTH 300 0
DWIDTH 6 0
BBX 5 5 0 0
BITMAP
70
98
A8
C8
70
ENDCHAR
STARTCHAR ugrave
ENCODING 249
SWIDTH 250 0
DWIDTH 5 0
BBX 4 8 0 0
BITMAP
80
40
00
90
90
90
90
60
ENDCHAR
STARTCHAR uacute
ENCODING 250
SWIDTH 250 0
DWIDTH 5 0
BBX 4 8 0 0
BITMAP
10
20
00
90
90
90
90
60
ENDCHAR
STARTCHAR ucircumflex
ENCODING 251
SWIDTH 250 0
DWIDTH 5 0
BBX 4 8 0 0
BITMAP
60
90
00
90
90
90
90
60
ENDCHAR
STARTCHAR udieresis
ENCODING 252
SWIDTH 250 0
DWIDTH 5 0
BBX 4 7 0 0
BITMAP
90
00
90
90
90
90
60
ENDCHAR
STARTCHAR yacute
ENCODING 253
SWIDTH 250 0
DWIDTH 5 0
BBX 4 9 0 -1
BITMAP
10
20
00
90
90
90
90
70
60
ENDCHAR
STARTCHAR thorn
ENCODING 254
SWIDTH 250 0
DWIDTH 5 0
BBX 4 8 0 -1
BITMAP
80
80
E0
90
90
90
E0
80
ENDCHAR
STARTCHAR ydieresis
ENCODING 255
SWIDTH 250 0
DWIDTH 5 0
BBX 4 8 0 -1
BITMAP
90
00
90
90
90
90
70
60
ENDCHAR
STARTCHAR OE
ENCODING 338
SWIDTH 400 0
DWIDTH 8 0
BBX 7 7 0 0
BITMAP
7E
90
90
9C
90
90
7E
ENDCHAR
STARTCHAR oe
ENCODING 339
SWIDTH 400 0
DWIDTH 8 0
BBX 7 5 0 0
BITMAP
6C
92
9E
90
6E
ENDCHAR
STARTCHAR Scaron
ENCODING 352
SWIDTH 300 0
DWIDTH 6 0
BBX 5 10 0 0
BITMAP
50
20
00
78
80
80
70
08
08
F0
ENDCHAR
STARTCHAR scaron
ENCODING 353
SWIDTH 250 0
DWIDTH 5 0
BBX 4 8 0 0
BITMAP
50
20
00
70
80
60
10
E0
ENDCHAR
STARTCHAR Ydieresis
ENCODING 376
SWIDTH 300 0
DWIDTH 6 0
BBX 5 9 0 0
BITMAP
50
00
88
88
50
20
20
20
20
ENDCHAR
STARTCHAR Zcaron
ENCODING 381
SWIDTH 300 0
DWIDTH 6 0
BBX 5 10 0 0
BITMAP
50
20
00
F8
08
10
20
40
80
F8
ENDCHAR
STARTCHAR zcaron
ENCODING 382
SWIDTH 300 0
DWIDTH 6 0
BBX 4 8 0 0
BITMAP
50
20
00
F0
10
60
80
F0
ENDCHAR
STARTCHAR florin
ENCODING 402
SWIDTH 250 0
DWIDTH 5 0
BBX 4 8 0 -1
BITMAP
30
40
E0
40
40
40
40
80
ENDCHAR
STARTCHAR circumflex
ENCODING 710
SWIDTH 200 0
DWIDTH 4 0
BBX 3 2 0 5
BITMAP
40
A0
ENDCHAR
STARTCHAR tilde
ENCODING 732
SWIDTH 300 0
DWIDTH 6 0
BBX 5 3 0 4
BITMAP
48
A8
90
ENDCHAR
STARTCHAR afii10023
ENCODING 1025
SWIDTH 300 0
DWIDTH 6 0
BBX 5 9 0 0
BITMAP
50
00
F8
80
80
F0
80
80
F8
ENDCHAR
STARTCHAR afii10051
ENCODING 1026
SWIDTH 350 0
DWIDTH 7 0
BBX 6 7 0 0
BITMAP
F0
40
78
44
44
44
58
ENDCHAR
STARTCHAR afii10052
ENCODING 1027
SWIDTH 300 0
DWIDTH 6 0
BBX 5 10 0 0
BITMAP
10
20
00
F8
80
80
80
80
80
80
ENDCHAR
STARTCHAR afii10053
ENCODING 1028
SWIDTH 300 0
DWIDTH 6 0
BBX 5 7 0 0
BITMAP
70
88
80
E0
80
88
70
ENDCHAR
STARTCHAR afii10054
ENCODING 1029
SWIDTH 300 0
DWIDTH 6 0
BBX 5 7 0 0
BITMAP
78
80
80
70
08
08
F0
ENDCHAR
STARTCHAR afii10055
ENCODING 1030
SWIDTH 300 0
DWIDTH 6 0
BBX 5 7 0 0
BITMAP
F8
20
20
20
20
20
F8
ENDCHAR
STARTCHAR afii10056
ENCODING 1031
SWIDTH 300 0
DWIDTH 6 0
BBX 5 9 0 0
BITMAP
50
00
F8
20
20
20
20
20
F8
ENDCHAR
STARTCHAR afii10057
ENCODING 1032
SWIDTH 300 0
DWIDTH 6 0
BBX 5 7 0 0
BITMAP
F8
88
08
08
88
88
70
ENDCHAR
STARTCHAR afii10058
ENCODING 1033
SWIDTH 400 0
DWIDTH 8 0
BBX 7 7 0 0
BITMAP
70
90
90
9C
92
92
9C
ENDCHAR
STARTCHAR afii10059
ENCODING 1034
SWIDTH 400 0
DWIDTH 8 0
BBX 7 7 0 0
BITMAP
90
90
90
FC
92
92
9C
ENDCHAR
STARTCHAR afii10060
ENCODING 1035
SWIDTH 350 0
DWIDTH 7 0
BBX 6 7 0 0
BITMAP
F0
40
78
44
44
44
44
ENDCHAR
STARTCHAR afii10061
ENCODING 1036
SWIDTH 300 0
DWIDTH 6 0
BBX 5 10 0 0
BITMAP
10
20
00
88
88
90
E0
90
88
88
ENDCHAR
STARTCHAR afii10062
ENCODING 1038
SWIDTH 300 0
DWIDTH 6 0
BBX 5 10 0 0
BITMAP
50
20
00
88
88
50
20
20
20
20
ENDCHAR
STARTCHAR afii10145
ENCODING 1039
SWIDTH 300 0
DWIDTH 6 0
BBX 5 8 0 -1
BITMAP
88
88
88
88
88
88
F8
20
ENDCHAR
STARTCHAR afii10017
ENCODING 1040
SWIDTH 300 0
DWIDTH 6 0
BBX 5 7 0 0
BITMAP
70
88
88
F8
88
88
88
ENDCHAR
STARTCHAR afii10018
ENCODING 1041
SWIDTH 300 0
DWIDTH 6 0
BBX 5 7 0 0
BITMAP
F8
80
80
F0
88
88
F0
ENDCHAR
STARTCHAR afii10019
ENCODING 1042
SWIDTH 300 0
DWIDTH 6 0
BBX 5 7 0 0
BITMAP
F0
88
88
F0
88
88
F0
ENDCHAR
STARTCHAR afii10020
ENCODING 1043
SWIDTH 300 0
DWIDTH 6 0
BBX 5 7 0 0
BITMAP
F8
80
80
80
80
80
80
ENDCHAR
STARTCHAR afii10021
ENCODING 1044
SWIDTH 300 0
DWIDTH 6 0
BBX 5 7 0 0
BITMAP
30
50
50
50
50
50
88
ENDCHAR
STARTCHAR afii10022
ENCODING 1045
SWIDTH 300 0
DWIDTH 6 0
BBX 5 7 0 0
BITMAP
F8
80
80
F0
80
80
F8
ENDCHAR
STARTCHAR afii10024
ENCODING 1046
SWIDTH 300 0
DWIDTH 6 0
BBX 5 7 0 0
BITMAP
A8
A8
A8
70
A8
A8
A8
ENDCHAR
STARTCHAR afii10025
ENCODING 1047
SWIDTH 300 0
DWIDTH 6 0
BBX 5 7 0 0
BITMAP
70
88
08
30
08
88
70
ENDCHAR
STARTCHAR afii10026
ENCODING 1048
SWIDTH 300 0
DWIDTH 6 0
BBX 5 7 0 0
BITMAP
88
88
98
A8
C8
88
88
ENDCHAR
STARTCHAR afii10027
ENCODING 1049
SWIDTH 300 0
DWIDTH 6 0
BBX 5 10 0 0
BITMAP
50
20
00
88
88
98
A8
C8
88
88
ENDCHAR
STARTCHAR afii10028
ENCODING 1050
SWIDTH 300 0
DWIDTH 6 0
BBX 5 7 0 0
BITMAP
88
88
90
E0
90
88
88
ENDCHAR
STARTCHAR afii10029
ENCODING 1051
SWIDTH 300 0
DWIDTH 6 0
BBX 5 7 0 0
BITMAP
38
48
88
88
88
88
88
ENDCHAR
STARTCHAR afii10030
ENCODING 1052
SWIDTH 300 0
DWIDTH 6 0
BBX 5 7 0 0
BITMAP
88
88
D8
A8
A8
88
88
ENDCHAR
STARTCHAR afii10031
ENCODING 1053
SWIDTH 300 0
DWIDTH 6 0
BBX 5 7 0 0
BITMAP
88
88
88
F8
88
88
88
ENDCHAR
STARTCHAR afii10032
ENCODING 1054
SWIDTH 300 0
DWIDTH 6 0
BBX 5 7 0 0
BITMAP
70
88
88
88
88
88
70
ENDCHAR
STARTCHAR afii10033
ENCODING 1055
SWIDTH 300 0
DWIDTH 6 0
BBX 5 7 0 0
BITMAP
F8
88
88
88
88
88
88
ENDCHAR
STARTCHAR afii10034
ENCODING 1056
SWIDTH 300 0
DWIDTH 6 0
BBX 5 7 0 0
BITMAP
F0
88
88
F0
80
80
80
ENDCHAR
STARTCHAR afii10035
ENCODING 1057
SWIDTH 300 0
DWIDTH 6 0
BBX 5 7 0 0
BITMAP
70
88
80
80
80
88
70
ENDCHAR
STARTCHAR afii10036
ENCODING 1058
SWIDTH 300 0
DWIDTH 6 0
BBX 5 7 0 0
BITMAP
F8
20
20
20
20
20
20
ENDCHAR
STARTCHAR afii10037
ENCODING 1059
SWIDTH 300 0
DWIDTH 6 0
BBX 5 7 0 0
BITMAP
88
88
88
78
08
88
70
ENDCHAR
STARTCHAR afii10038
ENCODING 1060
SWIDTH 300 0
DWIDTH 6 0
BBX 5 7 0 0
BITMAP
70
A8
A8
A8
A8
70
20
ENDCHAR
STARTCHAR afii10039
ENCODING 1061
SWIDTH 300 0
DWIDTH 6 0
BBX 5 7 0 0
BITMAP
88
88
50
20
50
88
88
ENDCHAR
STARTCHAR afii10040
ENCODING 1062
SWIDTH 350 0
DWIDTH 7 0
BBX 6 7 0 0
BITMAP
88
88
88
88
88
88
FC
ENDCHAR
STARTCHAR afii10041
ENCODING 1063
SWIDTH 300 0
DWIDTH 6 0
BBX 5 7 0 0
BITMAP
88
88
88
88
78
08
08
ENDCHAR
STARTCHAR afii10042
ENCODING 1064
SWIDTH 300 0
DWIDTH 6 0
BBX 5 7 0 0
BITMAP
A8
A8
A8
A8
A8
A8
F8
ENDCHAR
STARTCHAR afii10043
ENCODING 1065
SWIDTH 350 0
DWIDTH 7 0
BBX 6 7 0 0
BITMAP
A8
A8
A8
A8
A8
A8
FC
ENDCHAR
STARTCHAR afii10044
ENCODING 1066
SWIDTH 350 0
DWIDTH 7 0
BBX 6 7 0 0
BITMAP
C0
40
40
78
44
44
78
ENDCHAR
STARTCHAR afii10045
ENCODING 1067
SWIDTH 400 0
DWIDTH 8 0
BBX 7 7 0 0
BITMAP
82
82
82
F2
8A
8A
F2
ENDCHAR
STARTCHAR afii10046
ENCODING 1068
SWIDTH 300 0
DWIDTH 6 0
BBX 5 7 0 0
BITMAP
80
80
80
F0
88
88
F0
ENDCHAR
STARTCHAR afii10047
ENCODING 1069
SWIDTH 300 0
DWIDTH 6 0
BBX 5 7 0 0
BITMAP
70
88
08
38
08
88
70
ENDCHAR
STARTCHAR afii10048
ENCODING 1070
SWIDTH 350 0
DWIDTH 7 0
BBX 6 7 0 0
BITMAP
98
A4
A4
E4
A4
A4
98
ENDCHAR
STARTCHAR afii10049
ENCODING 1071
SWIDTH 300 0
DWIDTH 6 0
BBX 5 7 0 0
BITMAP
78
88
88
78
28
48
88
ENDCHAR
STARTCHAR afii10065
ENCODING 1072
SWIDTH 250 0
DWIDTH 5 0
BBX 4 5 0 0
BITMAP
60
10
70
90
70
ENDCHAR
STARTCHAR afii10066
ENCODING 1073
SWIDTH 250 0
DWIDTH 5 0
BBX 4 8 0 0
BITMAP
10
60
80
E0
90
90
90
60
ENDCHAR
STARTCHAR afii10067
ENCODING 1074
SWIDTH 250 0
DWIDTH 5 0
BBX 4 5 0 0
BITMAP
E0
90
E0
90
E0
ENDCHAR
STARTCHAR afii10068
ENCODING 1075
SWIDTH 250 0
DWIDTH 5 0
BBX 4 5 0 0
BITMAP
F0
80
80
80
80
ENDCHAR
STARTCHAR afii10069
ENCODING 1076
SWIDTH 300 0
DWIDTH 6 0
BBX 5 5 0 0
BITMAP
30
50
50
50
88
ENDCHAR
STARTCHAR afii10070
ENCODING 1077
SWIDTH 250 0
DWIDTH 5 0
BBX 4 5 0 0
BITMAP
60
90
F0
80
70
ENDCHAR
STARTCHAR afii10072
ENCODING 1078
SWIDTH 300 0
DWIDTH 6 0
BBX 5 5 0 0
BITMAP
A8
A8
70
A8
A8
ENDCHAR
STARTCHAR afii10073
ENCODING 1079
SWIDTH 250 0
DWIDTH 5 0
BBX 4 5 0 0
BITMAP
E0
10
60
10
E0
ENDCHAR
STARTCHAR afii10074
ENCODING 1080
SWIDTH 250 0
DWIDTH 5 0
BBX 4 5 0 0
BITMAP
90
90
B0
D0
90
ENDCHAR
STARTCHAR afii10075
ENCODING 1081
SWIDTH 250 0
DWIDTH 5 0
BBX 4 7 0 0
BITMAP
60
00
90
90
B0
D0
90
ENDCHAR
STARTCHAR afii10076
ENCODING 1082
SWIDTH 250 0
DWIDTH 5 0
BBX 4 5 0 0
BITMAP
90
A0
C0
A0
90
ENDCHAR
STARTCHAR afii10077
ENCODING 1083
SWIDTH 250 0
DWIDTH 5 0
BBX 4 5 0 0
BITMAP
30
50
90
90
90
ENDCHAR
STARTCHAR afii10078
ENCODING 1084
SWIDTH 300 0
DWIDTH 6 0
BBX 5 5 0 0
BITMAP
88
D8
A8
88
88
ENDCHAR
STARTCHAR afii10079
ENCODING 1085
SWIDTH 250 0
DWIDTH 5 0
BBX 4 5 0 0
BITMAP
90
90
F0
90
90
ENDCHAR
STARTCHAR afii10080
ENCODING 1086
SWIDTH 250 0
DWIDTH 5 0
BBX 4 5 0 0
BITMAP
60
90
90
90
60
ENDCHAR
STARTCHAR afii10081
ENCODING 1087
SWIDTH 250 0
DWIDTH 5 0
BBX 4 5 0 0
BITMAP
F0
90
90
90
90
ENDCHAR
STARTCHAR afii10082
ENCODING 1088
SWIDTH 250 0
DWIDTH 5 0
BBX 4 6 0 -1
BITMAP
E0
90
90
90
E0
80
ENDCHAR
STARTCHAR afii10083
ENCODING 1089
SWIDTH 250 0
DWIDTH 5 0
BBX 4 5 0 0
BITMAP
70
80
80
80
70
ENDCHAR
STARTCHAR afii10084
ENCODING 1090
SWIDTH 300 0
DWIDTH 6 0
BBX 5 5 0 0
BITMAP
F8
20
20
20
20
ENDCHAR
STARTCHAR afii10085
ENCODING 1091
SWIDTH 250 0
DWIDTH 5 0
BBX 4 6 0 -1
BITMAP
90
90
90
90
70
60
ENDCHAR
STARTCHAR afii10086
ENCODING 1092
SWIDTH 300 0
DWIDTH 6 0
BBX 5 6 0 0
BITMAP
20
70
A8
A8
A8
70
ENDCHAR
STARTCHAR afii10087
ENCODING 1093
SWIDTH 251 0
DWIDTH 5 0
BBX 4 5 0 0
BITMAP
90
90
60
90
90
ENDCHAR
STARTCHAR afii10088
ENCODING 1094
SWIDTH 300 0
DWIDTH 6 0
BBX 5 5 0 0
BITMAP
90
90
90
90
F8
ENDCHAR
STARTCHAR afii10089
ENCODING 1095
SWIDTH 250 0
DWIDTH 5 0
BBX 4 5 0 0
BITMAP
90
90
70
10
10
ENDCHAR
STARTCHAR afii10090
ENCODING 1096
SWIDTH 300 0
DWIDTH 6 0
BBX 5 5 0 0
BITMAP
A8
A8
A8
A8
F8
ENDCHAR
STARTCHAR afii10091
ENCODING 1097
SWIDTH 350 0
DWIDTH 7 0
BBX 6 5 0 0
BITMAP
A8
A8
A8
A8
FC
ENDCHAR
STARTCHAR afii10092
ENCODING 1098
SWIDTH 300 0
DWIDTH 6 0
BBX 5 5 0 0
BITMAP
C0
40
70
48
70
ENDCHAR
STARTCHAR afii10093
ENCODING 1099
SWIDTH 350 0
DWIDTH 7 0
BBX 6 5 0 0
BITMAP
84
84
E4
94
E4
ENDCHAR
STARTCHAR afii10094
ENCODING 1100
SWIDTH 250 0
DWIDTH 5 0
BBX 4 5 0 0
BITMAP
80
80
E0
90
E0
ENDCHAR
STARTCHAR afii10095
ENCODING 1101
SWIDTH 250 0
DWIDTH 5 0
BBX 4 5 0 0
BITMAP
E0
10
70
10
E0
ENDCHAR
STARTCHAR afii10096
ENCODING 1102
SWIDTH 350 0
DWIDTH 7 0
BBX 6 5 0 0
BITMAP
98
A4
E4
A4
98
ENDCHAR
STARTCHAR afii10097
ENCODING 1103
SWIDTH 250 0
DWIDTH 5 0
BBX 4 5 0 0
BITMAP
70
90
70
50
90
ENDCHAR
STARTCHAR afii10071
ENCODING 1105
SWIDTH 250 0
DWIDTH 5 0
BBX 4 7 0 0
BITMAP
50
00
60
90
F0
80
70
ENDCHAR
STARTCHAR afii10099
ENCODING 1106
SWIDTH 300 0
DWIDTH 6 0
BBX 5 8 0 -1
BITMAP
40
F0
40
70
48
48
48
30
ENDCHAR
STARTCHAR afii10100
ENCODING 1107
SWIDTH 250 0
DWIDTH 5 0
BBX 4 8 0 0
BITMAP
10
20
00
F0
80
80
80
80
ENDCHAR
STARTCHAR afii10101
ENCODING 1108
SWIDTH 250 0
DWIDTH 5 0
BBX 4 5 0 0
BITMAP
70
80
E0
80
70
ENDCHAR
STARTCHAR afii10102
ENCODING 1109
SWIDTH 250 0
DWIDTH 5 0
BBX 4 5 0 0
BITMAP
70
80
60
10
E0
ENDCHAR
STARTCHAR afii10103
ENCODING 1110
SWIDTH 200 0
DWIDTH 4 0
BBX 3 7 0 0
BITMAP
40
00
C0
40
40
40
E0
ENDCHAR
STARTCHAR afii10104
ENCODING 1111
SWIDTH 200 0
DWIDTH 4 0
BBX 3 7 0 0
BITMAP
A0
00
C0
40
40
40
E0
ENDCHAR
STARTCHAR afii10105
ENCODING 1112
SWIDTH 200 0
DWIDTH 4 0
BBX 3 8 0 -1
BITMAP
40
00
E0
20
20
20
20
C0
ENDCHAR
STARTCHAR afii10106
ENCODING 1113
SWIDTH 400 0
DWIDTH 8 0
BBX 7 5 0 0
BITMAP
70
90
9C
92
9C
ENDCHAR
STARTCHAR afii10107
ENCODING 1114
SWIDTH 400 0
DWIDTH 8 0
BBX 7 5 0 0
BITMAP
90
90
FC
92
9C
ENDCHAR
STARTCHAR afii10108
ENCODING 1115
SWIDTH 300 0
DWIDTH 6 0
BBX 5 7 0 0
BITMAP
40
F0
40
70
48
48
48
ENDCHAR
STARTCHAR afii10109
ENCODING 1116
SWIDTH 250 0
DWIDTH 5 0
BBX 4 8 0 0
BITMAP
10
20
00
90
A0
C0
A0
90
ENDCHAR
STARTCHAR afii10110
ENCODING 1118
SWIDTH 250 0
DWIDTH 5 0
BBX 4 8 0 -1
BITMAP
60
00
90
90
90
90
70
60
ENDCHAR
STARTCHAR afii10193
ENCODING 1119
SWIDTH 300 0
DWIDTH 6 0
BBX 5 6 0 -1
BITMAP
88
88
88
88
F8
20
ENDCHAR
STARTCHAR afii10050
ENCODING 1168
SWIDTH 300 0
DWIDTH 6 0
BBX 5 8 0 0
BITMAP
08
F8
80
80
80
80
80
80
ENDCHAR
STARTCHAR afii10098
ENCODING 1169
SWIDTH 250 0
DWIDTH 5 0
BBX 4 6 0 0
BITMAP
10
F0
80
80
80
80
ENDCHAR
STARTCHAR endash
ENCODING 8211
SWIDTH 300 0
DWIDTH 6 0
BBX 5 1 0 3
BITMAP
F8
ENDCHAR
STARTCHAR emdash
ENCODING 8212
SWIDTH 350 0
DWIDTH 7 0
BBX 6 1 0 3
BITMAP
FC
ENDCHAR
STARTCHAR quoteleft
ENCODING 8216
SWIDTH 150 0
DWIDTH 3 0
BBX 2 4 0 6
BITMAP
40
80
80
C0
ENDCHAR
STARTCHAR quoteright
ENCODING 8217
SWIDTH 150 0
DWIDTH 3 0
BBX 2 4 0 3
BITMAP
C0
40
40
80
ENDCHAR
STARTCHAR quotesinglbase
ENCODING 8218
SWIDTH 150 0
DWIDTH 3 0
BBX 2 3 0 -1
BITMAP
C0
40
80
ENDCHAR
STARTCHAR quotedblleft
ENCODING 8220
SWIDTH 300 0
DWIDTH 6 0
BBX 5 4 0 6
BITMAP
48
90
90
D8
ENDCHAR
STARTCHAR quotedblright
ENCODING 8221
SWIDTH 300 0
DWIDTH 6 0
BBX 5 4 0 3
BITMAP
D8
48
48
90
ENDCHAR
STARTCHAR quotedblbase
ENCODING 8222
SWIDTH 300 0
DWIDTH 6 0
BBX 5 3 0 -1
BITMAP
D8
48
90
ENDCHAR
STARTCHAR dagger
ENCODING 8224
SWIDTH 300 0
DWIDTH 6 0
BBX 5 7 0 0
BITMAP
20
20
F8
20
20
20
20
ENDCHAR
STARTCHAR daggerdbl
ENCODING 8225
SWIDTH 300 0
DWIDTH 6 0
BBX 5 7 0 0
BITMAP
20
20
F8
20
F8
20
20
ENDCHAR
STARTCHAR bullet
ENCODING 8226
SWIDTH 150 0
DWIDTH 3 0
BBX 2 2 0 3
BITMAP
C0
C0
ENDCHAR
STARTCHAR ellipsis
ENCODING 8230
SWIDTH 300 0
DWIDTH 6 0
BBX 5 1 0 0
BITMAP
A8
ENDCHAR
STARTCHAR perthousand
ENCODING 8240
SWIDTH 400 0
DWIDTH 8 0
BBX 7 6 0 0
BITMAP
84
88
10
20
4A
8A
ENDCHAR
STARTCHAR guilsinglleft
ENCODING 8249
SWIDTH 200 0
DWIDTH 4 0
BBX 3 5 0 1
BITMAP
20
40
80
40
20
ENDCHAR
STARTCHAR guilsinglright
ENCODING 8250
SWIDTH 200 0
DWIDTH 4 0
BBX 3 5 0 1
BITMAP
80
40
20
40
80
ENDCHAR
STARTCHAR Euro
ENCODING 8364
SWIDTH 300 0
DWIDTH 6 0
BBX 5 7 0 0
BITMAP
38
40
F0
40
F0
40
38
ENDCHAR
STARTCHAR afii61352
ENCODING 8470
SWIDTH 400 0
DWIDTH 8 0
BBX 7 7 0 0
BITMAP
8A
8A
C8
AA
98
88
88
ENDCHAR
STARTCHAR trademark
ENCODING 8482
SWIDTH 450 0
DWIDTH 9 0
BBX 8 4 0 2
BITMAP
F1
5B
55
51
ENDCHAR
STARTCHAR .notdef
ENCODING -1
SWIDTH 300 0
DWIDTH 6 0
BBX 1 1 0 0
BITMAP
00
ENDCHAR
STARTCHAR .null
ENCODING -1
SWIDTH 0 0
DWIDTH 0 0
BBX 1 1 0 0
BITMAP
00
ENDCHAR
STARTCHAR nonmarkingreturn
ENCODING -1
SWIDTH 300 0
DWIDTH 6 0
BBX 1 1 0 0
BITMAP
00
ENDCHAR
ENDFONT
